<?xml version="1.0" encoding="UTF-8"?>
<svg xmlns="http://www.w3.org/2000/svg" xmlns:xlink="http://www.w3.org/1999/xlink" version="1.1" viewBox="0 0 368.9 108.96">
  <!-- Generator: Adobe Illustrator 29.8.2, SVG Export Plug-In . SVG Version: 2.1.1 Build 3)  -->
  <defs>
    <style>
      .st0 {
        fill: #49484b;
      }

      .st1 {
        fill: #5c5c5f;
      }

      .st2 {
        opacity: .25;
      }

      .st2, .st3, .st4, .st5, .st6, .st7, .st8, .st9, .st10, .st11, .st12 {
        mix-blend-mode: multiply;
      }

      .st3 {
        fill: #b5b8ba;
        opacity: .45;
      }

      .st4 {
        fill: url(#Degradado_sin_nombre_2793);
      }

      .st5 {
        fill: url(#Degradado_sin_nombre_2795);
      }

      .st6 {
        fill: url(#Degradado_sin_nombre_2794);
      }

      .st7 {
        fill: url(#Degradado_sin_nombre_2792);
      }

      .st8 {
        fill: url(#Degradado_sin_nombre_2791);
      }

      .st9 {
        fill: url(#Degradado_sin_nombre_2797);
      }

      .st10 {
        fill: url(#Degradado_sin_nombre_2796);
      }

      .st13 {
        fill: #262226;
      }

      .st11 {
        opacity: .2;
      }

      .st11, .st14 {
        fill: #363538;
      }

      .st15 {
        isolation: isolate;
      }

      .st16 {
        fill: #cdd0d1;
      }

      .st17 {
        fill: #fff;
      }

      .st18 {
        fill: #e4ed69;
      }

      .st19 {
        fill: #5aff7d;
      }

      .st20 {
        opacity: .15;
      }

      .st12 {
        fill: url(#Degradado_sin_nombre_279);
      }
    </style>
    <linearGradient id="Degradado_sin_nombre_279" data-name="Degradado sin nombre 279" x1="204.15" y1="-15.37" x2="236.66" y2="54.36" gradientUnits="userSpaceOnUse">
      <stop offset="0" stop-color="#363538"/>
      <stop offset=".81" stop-color="#363538" stop-opacity="0"/>
    </linearGradient>
    <linearGradient id="Degradado_sin_nombre_2791" data-name="Degradado sin nombre 279" x1="208.71" y1="39.84" x2="230.11" y2="85.73" xlink:href="#Degradado_sin_nombre_279"/>
    <linearGradient id="Degradado_sin_nombre_2792" data-name="Degradado sin nombre 279" x1="22.99" y1="-15.37" x2="55.51" y2="54.36" xlink:href="#Degradado_sin_nombre_279"/>
    <linearGradient id="Degradado_sin_nombre_2793" data-name="Degradado sin nombre 279" x1="27.56" y1="39.84" x2="48.96" y2="85.73" xlink:href="#Degradado_sin_nombre_279"/>
    <linearGradient id="Degradado_sin_nombre_2794" data-name="Degradado sin nombre 279" x1="113.57" y1="-25.37" x2="146.08" y2="44.36" xlink:href="#Degradado_sin_nombre_279"/>
    <linearGradient id="Degradado_sin_nombre_2795" data-name="Degradado sin nombre 279" x1="118.13" y1="29.84" x2="139.53" y2="75.73" xlink:href="#Degradado_sin_nombre_279"/>
    <linearGradient id="Degradado_sin_nombre_2796" data-name="Degradado sin nombre 279" x1="294.72" y1="-25.37" x2="327.24" y2="44.36" xlink:href="#Degradado_sin_nombre_279"/>
    <linearGradient id="Degradado_sin_nombre_2797" data-name="Degradado sin nombre 279" x1="299.29" y1="29.84" x2="320.69" y2="75.73" xlink:href="#Degradado_sin_nombre_279"/>
  </defs>
  <g class="st15">
    <g id="OBJECTS">
      <g>
        <path class="st1" d="M195.96,19.63h65.46c6.38,0,11.56,5.18,11.56,11.56v57.58c0,6.38-5.18,11.56-11.56,11.56h-65.46c-6.38,0-11.56-5.18-11.56-11.56V31.19c0-6.38,5.18-11.56,11.56-11.56Z" transform="translate(288.67 -168.72) rotate(90)"/>
        <rect class="st13" x="187.57" y="22.79" width="82.24" height="74.36" rx="9.04" ry="9.04" transform="translate(288.67 -168.72) rotate(90)"/>
        <path class="st14" d="M204.03,50.51v7.82h49.31v-7.82c0-2.41,1.96-4.37,4.37-4.37h4.99v-15.93c0-4.52-3.67-8.19-8.19-8.19h-51.65c-4.52,0-8.19,3.67-8.19,8.19v15.93h4.99c2.41,0,4.37,1.96,4.37,4.37Z"/>
        <path class="st12" d="M204.03,50.51v7.82h49.31v-7.82c0-2.41,1.96-4.37,4.37-4.37h4.99v-15.93c0-4.52-3.67-8.19-8.19-8.19h-51.65c-4.52,0-8.19,3.67-8.19,8.19v15.93h4.99c2.41,0,4.37,1.96,4.37,4.37Z"/>
        <path class="st14" d="M253.35,69.44v-7.82h-49.31v7.82c0,2.41-1.96,4.37-4.37,4.37h-4.99v15.93c0,4.52,3.67,8.19,8.19,8.19h51.65c4.52,0,8.19-3.67,8.19-8.19v-15.93h-4.99c-2.41,0-4.37-1.96-4.37-4.37Z"/>
        <path class="st8" d="M253.35,69.44v-7.82h-49.31v7.82c0,2.41-1.96,4.37-4.37,4.37h-4.99v15.93c0,4.52,3.67,8.19,8.19,8.19h51.65c4.52,0,8.19-3.67,8.19-8.19v-15.93h-4.99c-2.41,0-4.37-1.96-4.37-4.37Z"/>
        <path class="st3" d="M254.77,95.64h-52.15c-4.38,0-7.94-3.55-7.94-7.94v2.04c0,4.52,3.67,8.19,8.19,8.19h51.65c4.52,0,8.19-3.67,8.19-8.19v-2.04c0,4.38-3.55,7.94-7.94,7.94Z"/>
        <path class="st1" d="M254.52,22.02h-51.65c-4.52,0-8.19,3.67-8.19,8.19v2.04c0-4.38,3.55-7.94,7.94-7.94h52.15c4.38,0,7.94,3.55,7.94,7.94v-2.04c0-4.52-3.67-8.19-8.19-8.19Z"/>
        <rect class="st14" x="194.68" y="49.31" width="6.19" height="21.33" rx=".96" ry=".96"/>
        <path class="st1" d="M261.5,49.31h-3.79c-.66,0-1.2.54-1.2,1.2v2.11c0-.66.54-1.2,1.2-1.2h3.79c.66,0,1.2.54,1.2,1.2v-2.11c0-.66-.54-1.2-1.2-1.2Z"/>
        <path class="st1" d="M199.66,49.31h-3.79c-.66,0-1.2.54-1.2,1.2v2.11c0-.66.54-1.2,1.2-1.2h3.79c.66,0,1.2.54,1.2,1.2v-2.11c0-.66-.54-1.2-1.2-1.2Z"/>
        <path class="st11" d="M195.88,70.64h3.79c.66,0,1.2-.54,1.2-1.2v-2.11c0,.66-.54,1.2-1.2,1.2h-3.79c-.66,0-1.2-.54-1.2-1.2v2.11c0,.66.54,1.2,1.2,1.2Z"/>
        <path class="st11" d="M257.72,70.64h3.79c.66,0,1.2-.54,1.2-1.2v-2.11c0,.66-.54,1.2-1.2,1.2h-3.79c-.66,0-1.2-.54-1.2-1.2v2.11c0,.66.54,1.2,1.2,1.2Z"/>
        <path class="st18" d="M232.71,44.56v30.82h-8.05v-30.82h8.05Z"/>
        <g class="st20">
          <rect class="st16" x="204.03" y="61.62" width="49.31" height="2.11"/>
          <path class="st16" d="M204.03,71.55v-2.11c0,2.41-1.96,4.37-4.37,4.37h-4.99v2.11h4.99c2.41,0,4.37-1.96,4.37-4.37Z"/>
          <path class="st16" d="M257.72,73.81c-2.41,0-4.37-1.96-4.37-4.37v2.11c0,2.41,1.96,4.37,4.37,4.37h4.99v-2.11h-4.99Z"/>
        </g>
        <g class="st2">
          <rect class="st0" x="204.03" y="56.22" width="49.31" height="2.11"/>
          <path class="st0" d="M204.03,48.4c0-2.41-1.96-4.37-4.37-4.37h-4.99v2.11h4.99c2.41,0,4.37,1.96,4.37,4.37v-2.11Z"/>
          <path class="st0" d="M253.35,48.4v2.11c0-2.41,1.96-4.37,4.37-4.37h4.99v-2.11h-4.99c-2.41,0-4.37,1.96-4.37,4.37Z"/>
        </g>
        <rect class="st14" x="256.52" y="49.31" width="6.19" height="21.33" rx=".96" ry=".96"/>
        <rect class="st13" x="204.03" y="58.34" width="49.31" height="3.28"/>
      </g>
      <g>
        <path class="st1" d="M14.81,19.63h65.46c6.38,0,11.56,5.18,11.56,11.56v57.58c0,6.38-5.18,11.56-11.56,11.56H14.81c-6.38,0-11.56-5.18-11.56-11.56V31.19c0-6.38,5.18-11.56,11.56-11.56Z" transform="translate(107.51 12.44) rotate(90)"/>
        <rect class="st13" x="6.42" y="22.79" width="82.24" height="74.36" rx="9.04" ry="9.04" transform="translate(107.51 12.44) rotate(90)"/>
        <path class="st14" d="M22.88,50.51v7.82h49.31v-7.82c0-2.41,1.96-4.37,4.37-4.37h4.99v-15.93c0-4.52-3.67-8.19-8.19-8.19H21.71c-4.52,0-8.19,3.67-8.19,8.19v15.93h4.99c2.41,0,4.37,1.96,4.37,4.37Z"/>
        <path class="st7" d="M22.88,50.51v7.82h49.31v-7.82c0-2.41,1.96-4.37,4.37-4.37h4.99v-15.93c0-4.52-3.67-8.19-8.19-8.19H21.71c-4.52,0-8.19,3.67-8.19,8.19v15.93h4.99c2.41,0,4.37,1.96,4.37,4.37Z"/>
        <path class="st14" d="M72.2,69.44v-7.82H22.88v7.82c0,2.41-1.96,4.37-4.37,4.37h-4.99v15.93c0,4.52,3.67,8.19,8.19,8.19h51.65c4.52,0,8.19-3.67,8.19-8.19v-15.93h-4.99c-2.41,0-4.37-1.96-4.37-4.37Z"/>
        <path class="st4" d="M72.2,69.44v-7.82H22.88v7.82c0,2.41-1.96,4.37-4.37,4.37h-4.99v15.93c0,4.52,3.67,8.19,8.19,8.19h51.65c4.52,0,8.19-3.67,8.19-8.19v-15.93h-4.99c-2.41,0-4.37-1.96-4.37-4.37Z"/>
        <path class="st3" d="M73.61,95.64H21.46c-4.38,0-7.94-3.55-7.94-7.94v2.04c0,4.52,3.67,8.19,8.19,8.19h51.65c4.52,0,8.19-3.67,8.19-8.19v-2.04c0,4.38-3.55,7.94-7.94,7.94Z"/>
        <path class="st1" d="M73.36,22.02H21.71c-4.52,0-8.19,3.67-8.19,8.19v2.04c0-4.38,3.55-7.94,7.94-7.94h52.15c4.38,0,7.94,3.55,7.94,7.94v-2.04c0-4.52-3.67-8.19-8.19-8.19Z"/>
        <rect class="st14" x="75.36" y="49.31" width="6.19" height="21.33" rx=".96" ry=".96"/>
        <rect class="st14" x="13.53" y="49.31" width="6.19" height="21.33" rx=".96" ry=".96"/>
        <path class="st1" d="M80.35,49.31h-3.79c-.66,0-1.2.54-1.2,1.2v2.11c0-.66.54-1.2,1.2-1.2h3.79c.66,0,1.2.54,1.2,1.2v-2.11c0-.66-.54-1.2-1.2-1.2Z"/>
        <path class="st1" d="M18.51,49.31h-3.79c-.66,0-1.2.54-1.2,1.2v2.11c0-.66.54-1.2,1.2-1.2h3.79c.66,0,1.2.54,1.2,1.2v-2.11c0-.66-.54-1.2-1.2-1.2Z"/>
        <path class="st11" d="M14.73,70.64h3.79c.66,0,1.2-.54,1.2-1.2v-2.11c0,.66-.54,1.2-1.2,1.2h-3.79c-.66,0-1.2-.54-1.2-1.2v2.11c0,.66.54,1.2,1.2,1.2Z"/>
        <path class="st11" d="M76.57,70.64h3.79c.66,0,1.2-.54,1.2-1.2v-2.11c0,.66-.54,1.2-1.2,1.2h-3.79c-.66,0-1.2-.54-1.2-1.2v2.11c0,.66.54,1.2,1.2,1.2Z"/>
        <path class="st17" d="M40.35,44.56l13.98,18.56v-18.56h7.48v30.82h-7.04l-13.98-18.47v18.47h-7.52v-30.82h7.08Z"/>
        <rect class="st13" x="22.88" y="58.34" width="49.31" height="3.28"/>
        <g class="st20">
          <rect class="st16" x="22.88" y="61.62" width="49.31" height="2.11"/>
          <path class="st16" d="M22.88,71.55v-2.11c0,2.41-1.96,4.37-4.37,4.37h-4.99v2.11h4.99c2.41,0,4.37-1.96,4.37-4.37Z"/>
          <path class="st16" d="M76.56,73.81c-2.41,0-4.37-1.96-4.37-4.37v2.11c0,2.41,1.96,4.37,4.37,4.37h4.99v-2.11h-4.99Z"/>
        </g>
        <g class="st2">
          <rect class="st0" x="22.88" y="56.22" width="49.31" height="2.11"/>
          <path class="st0" d="M22.88,48.4c0-2.41-1.96-4.37-4.37-4.37h-4.99v2.11h4.99c2.41,0,4.37,1.96,4.37,4.37v-2.11Z"/>
          <path class="st0" d="M72.2,48.4v2.11c0-2.41,1.96-4.37,4.37-4.37h4.99v-2.11h-4.99c-2.41,0-4.37,1.96-4.37,4.37Z"/>
        </g>
      </g>
      <g>
        <rect class="st1" x="93.82" y="9.63" width="88.58" height="80.7" rx="11.56" ry="11.56" transform="translate(188.09 -88.14) rotate(90)"/>
        <rect class="st13" x="96.99" y="12.79" width="82.24" height="74.36" rx="9.04" ry="9.04" transform="translate(188.09 -88.14) rotate(90)"/>
        <path class="st14" d="M113.46,40.51v7.82h49.31v-7.82c0-2.41,1.96-4.37,4.37-4.37h4.99v-15.93c0-4.52-3.67-8.19-8.19-8.19h-51.65c-4.52,0-8.19,3.67-8.19,8.19v15.93h4.99c2.41,0,4.37,1.96,4.37,4.37Z"/>
        <path class="st6" d="M113.46,40.51v7.82h49.31v-7.82c0-2.41,1.96-4.37,4.37-4.37h4.99v-15.93c0-4.52-3.67-8.19-8.19-8.19h-51.65c-4.52,0-8.19,3.67-8.19,8.19v15.93h4.99c2.41,0,4.37,1.96,4.37,4.37Z"/>
        <path class="st14" d="M162.77,59.44v-7.82h-49.31v7.82c0,2.41-1.96,4.37-4.37,4.37h-4.99v15.93c0,4.52,3.67,8.19,8.19,8.19h51.65c4.52,0,8.19-3.67,8.19-8.19v-15.93h-4.99c-2.41,0-4.37-1.96-4.37-4.37Z"/>
        <path class="st5" d="M162.77,59.44v-7.82h-49.31v7.82c0,2.41-1.96,4.37-4.37,4.37h-4.99v15.93c0,4.52,3.67,8.19,8.19,8.19h51.65c4.52,0,8.19-3.67,8.19-8.19v-15.93h-4.99c-2.41,0-4.37-1.96-4.37-4.37Z"/>
        <path class="st3" d="M164.19,85.64h-52.15c-4.38,0-7.94-3.55-7.94-7.94v2.04c0,4.52,3.67,8.19,8.19,8.19h51.65c4.52,0,8.19-3.67,8.19-8.19v-2.04c0,4.38-3.55,7.94-7.94,7.94Z"/>
        <path class="st1" d="M163.94,12.02h-51.65c-4.52,0-8.19,3.67-8.19,8.19v2.04c0-4.38,3.55-7.94,7.94-7.94h52.15c4.38,0,7.94,3.55,7.94,7.94v-2.04c0-4.52-3.67-8.19-8.19-8.19Z"/>
        <rect class="st14" x="165.94" y="39.31" width="6.19" height="21.33" rx=".96" ry=".96"/>
        <rect class="st14" x="104.1" y="39.31" width="6.19" height="21.33" rx=".96" ry=".96"/>
        <path class="st1" d="M170.93,39.31h-3.79c-.66,0-1.2.54-1.2,1.2v2.11c0-.66.54-1.2,1.2-1.2h3.79c.66,0,1.2.54,1.2,1.2v-2.11c0-.66-.54-1.2-1.2-1.2Z"/>
        <path class="st1" d="M109.09,39.31h-3.79c-.66,0-1.2.54-1.2,1.2v2.11c0-.66.54-1.2,1.2-1.2h3.79c.66,0,1.2.54,1.2,1.2v-2.11c0-.66-.54-1.2-1.2-1.2Z"/>
        <path class="st11" d="M105.3,60.64h3.79c.66,0,1.2-.54,1.2-1.2v-2.11c0,.66-.54,1.2-1.2,1.2h-3.79c-.66,0-1.2-.54-1.2-1.2v2.11c0,.66.54,1.2,1.2,1.2Z"/>
        <path class="st11" d="M167.14,60.64h3.79c.66,0,1.2-.54,1.2-1.2v-2.11c0,.66-.54,1.2-1.2,1.2h-3.79c-.66,0-1.2-.54-1.2-1.2v2.11c0,.66.54,1.2,1.2,1.2Z"/>
        <path class="st18" d="M154.78,48.25c0,9.01-7.12,15.79-16.67,15.79s-16.67-6.77-16.67-15.79,7.12-15.61,16.67-15.61,16.67,6.68,16.67,15.61ZM129.72,48.29c0,5.01,3.91,8.88,8.49,8.88s8.31-3.87,8.31-8.88-3.69-8.79-8.31-8.79-8.49,3.78-8.49,8.79Z"/>
        <rect class="st13" x="113.46" y="48.34" width="49.31" height="3.28"/>
        <g class="st20">
          <rect class="st16" x="113.46" y="51.62" width="49.31" height="2.11"/>
          <path class="st16" d="M113.46,61.55v-2.11c0,2.41-1.96,4.37-4.37,4.37h-4.99v2.11h4.99c2.41,0,4.37-1.96,4.37-4.37Z"/>
          <path class="st16" d="M167.14,63.81c-2.41,0-4.37-1.96-4.37-4.37v2.11c0,2.41,1.96,4.37,4.37,4.37h4.99v-2.11h-4.99Z"/>
        </g>
        <g class="st2">
          <rect class="st0" x="113.46" y="46.22" width="49.31" height="2.11"/>
          <path class="st0" d="M113.46,38.4c0-2.41-1.96-4.37-4.37-4.37h-4.99v2.11h4.99c2.41,0,4.37,1.96,4.37,4.37v-2.11Z"/>
          <path class="st0" d="M162.77,38.4v2.11c0-2.41,1.96-4.37,4.37-4.37h4.99v-2.11h-4.99c-2.41,0-4.37,1.96-4.37,4.37Z"/>
        </g>
      </g>
      <g>
        <rect class="st1" x="274.98" y="9.63" width="88.58" height="80.7" rx="11.56" ry="11.56" transform="translate(369.24 -269.29) rotate(90)"/>
        <rect class="st13" x="278.15" y="12.79" width="82.24" height="74.36" rx="9.04" ry="9.04" transform="translate(369.24 -269.29) rotate(90)"/>
        <path class="st14" d="M294.61,40.51v7.82h49.31v-7.82c0-2.41,1.96-4.37,4.37-4.37h4.99v-15.93c0-4.52-3.67-8.19-8.19-8.19h-51.65c-4.52,0-8.19,3.67-8.19,8.19v15.93h4.99c2.41,0,4.37,1.96,4.37,4.37Z"/>
        <path class="st10" d="M294.61,40.51v7.82h49.31v-7.82c0-2.41,1.96-4.37,4.37-4.37h4.99v-15.93c0-4.52-3.67-8.19-8.19-8.19h-51.65c-4.52,0-8.19,3.67-8.19,8.19v15.93h4.99c2.41,0,4.37,1.96,4.37,4.37Z"/>
        <path class="st14" d="M343.92,59.44v-7.82h-49.31v7.82c0,2.41-1.96,4.37-4.37,4.37h-4.99v15.93c0,4.52,3.67,8.19,8.19,8.19h51.65c4.52,0,8.19-3.67,8.19-8.19v-15.93h-4.99c-2.41,0-4.37-1.96-4.37-4.37Z"/>
        <path class="st9" d="M343.92,59.44v-7.82h-49.31v7.82c0,2.41-1.96,4.37-4.37,4.37h-4.99v15.93c0,4.52,3.67,8.19,8.19,8.19h51.65c4.52,0,8.19-3.67,8.19-8.19v-15.93h-4.99c-2.41,0-4.37-1.96-4.37-4.37Z"/>
        <path class="st3" d="M345.34,85.64h-52.15c-4.38,0-7.94-3.55-7.94-7.94v2.04c0,4.52,3.67,8.19,8.19,8.19h51.65c4.52,0,8.19-3.67,8.19-8.19v-2.04c0,4.38-3.55,7.94-7.94,7.94Z"/>
        <path class="st1" d="M345.09,12.02h-51.65c-4.52,0-8.19,3.67-8.19,8.19v2.04c0-4.38,3.55-7.94,7.94-7.94h52.15c4.38,0,7.94,3.55,7.94,7.94v-2.04c0-4.52-3.67-8.19-8.19-8.19Z"/>
        <rect class="st14" x="347.09" y="39.31" width="6.19" height="21.33" rx=".96" ry=".96"/>
        <rect class="st14" x="285.25" y="39.31" width="6.19" height="21.33" rx=".96" ry=".96"/>
        <path class="st1" d="M352.08,39.31h-3.79c-.66,0-1.2.54-1.2,1.2v2.11c0-.66.54-1.2,1.2-1.2h3.79c.66,0,1.2.54,1.2,1.2v-2.11c0-.66-.54-1.2-1.2-1.2Z"/>
        <path class="st1" d="M290.24,39.31h-3.79c-.66,0-1.2.54-1.2,1.2v2.11c0-.66.54-1.2,1.2-1.2h3.79c.66,0,1.2.54,1.2,1.2v-2.11c0-.66-.54-1.2-1.2-1.2Z"/>
        <path class="st11" d="M286.46,60.64h3.79c.66,0,1.2-.54,1.2-1.2v-2.11c0,.66-.54,1.2-1.2,1.2h-3.79c-.66,0-1.2-.54-1.2-1.2v2.11c0,.66.54,1.2,1.2,1.2Z"/>
        <path class="st11" d="M348.29,60.64h3.79c.66,0,1.2-.54,1.2-1.2v-2.11c0,.66-.54,1.2-1.2,1.2h-3.79c-.66,0-1.2-.54-1.2-1.2v2.11c0,.66.54,1.2,1.2,1.2Z"/>
        <path class="st19" d="M323.97,65.39l-4.49-8.53h-5.98v8.53h-8.05v-30.82h13.85c8.18,0,12.84,3.96,12.84,10.82,0,4.66-1.93,8.09-5.5,9.94l6.42,10.07h-9.1ZM313.51,50.44h5.85c3.25,0,5.14-1.67,5.14-4.79s-1.89-4.66-5.14-4.66h-5.85v9.45Z"/>
        <g class="st20">
          <rect class="st16" x="294.61" y="51.62" width="49.31" height="2.11"/>
          <path class="st16" d="M294.61,61.55v-2.11c0,2.41-1.96,4.37-4.37,4.37h-4.99v2.11h4.99c2.41,0,4.37-1.96,4.37-4.37Z"/>
          <path class="st16" d="M348.29,63.81c-2.41,0-4.37-1.96-4.37-4.37v2.11c0,2.41,1.96,4.37,4.37,4.37h4.99v-2.11h-4.99Z"/>
        </g>
        <g class="st2">
          <rect class="st0" x="294.61" y="46.22" width="49.31" height="2.11"/>
          <path class="st0" d="M294.61,38.4c0-2.41-1.96-4.37-4.37-4.37h-4.99v2.11h4.99c2.41,0,4.37,1.96,4.37,4.37v-2.11Z"/>
          <path class="st0" d="M343.92,38.4v2.11c0-2.41,1.96-4.37,4.37-4.37h4.99v-2.11h-4.99c-2.41,0-4.37,1.96-4.37,4.37Z"/>
        </g>
        <rect class="st13" x="294.61" y="48.34" width="49.31" height="3.28"/>
      </g>
    </g>
  </g>
</svg>